<svg xmlns="http://www.w3.org/2000/svg" width="880.208" height="829.278" viewBox="0 0 880.208 829.278" xmlns:xlink="http://www.w3.org/1999/xlink" role="img" artist="Katerina Limpitsouni" source="https://undraw.co/">
  <g id="Group_163" data-name="Group 163" transform="translate(-520.002 -84.467)">
    <path id="Path_2479-281" data-name="Path 2479" d="M1018.6,757.012H570.287c-9.627-.012-17.429-8.574-17.44-19.14V141.14c.011-10.566,7.813-19.129,17.44-19.14H1018.6c9.627.012,17.429,8.574,17.44,19.14V737.871c-.011,10.566-7.813,19.129-17.44,19.141ZM570.287,124.252c-8.495.011-15.379,7.566-15.388,16.889V737.871c.01,9.323,6.894,16.878,15.388,16.889H1018.6c8.495-.011,15.379-7.566,15.388-16.889V141.14c-.01-9.323-6.894-16.878-15.388-16.889Z" transform="translate(364.17 44)" fill="#3f3d56"/>
    <rect id="Rectangle_642" data-name="Rectangle 642" width="480.762" height="2.252" transform="translate(918.143 212.827)" fill="#3f3d56"/>
    <circle id="Ellipse_443" data-name="Ellipse 443" cx="9.007" cy="9.007" r="9.007" transform="translate(935.031 181.763)" fill="#3f3d56"/>
    <circle id="Ellipse_444" data-name="Ellipse 444" cx="9.007" cy="9.007" r="9.007" transform="translate(963.18 181.763)" fill="#3f3d56"/>
    <circle id="Ellipse_445" data-name="Ellipse 445" cx="9.007" cy="9.007" r="9.007" transform="translate(991.328 181.763)" fill="#3f3d56"/>
    <path id="Path_2480-282" data-name="Path 2480" d="M980.026,246.274H628.743a14.637,14.637,0,0,1,0-29.274H980.026a14.637,14.637,0,1,1,0,29.274ZM628.743,219.252a12.385,12.385,0,0,0,0,24.77H980.026a12.385,12.385,0,1,0,0-24.77Z" transform="translate(354.229 55.961)" fill="#3f3d56"/>
    <path id="Path_2481-283" data-name="Path 2481" d="M761.474,443H622.987a19.162,19.162,0,0,1-19.14-19.14V310.14A19.162,19.162,0,0,1,622.987,291H761.474a19.162,19.162,0,0,1,19.14,19.14V423.857A19.162,19.162,0,0,1,761.473,443ZM622.987,293.252A16.908,16.908,0,0,0,606.1,310.14V423.857a16.908,16.908,0,0,0,16.889,16.889H761.474a16.908,16.908,0,0,0,16.889-16.889V310.14a16.908,16.908,0,0,0-16.889-16.889Z" transform="translate(364.488 70.908)" fill="#3f3d56"/>
    <path id="Path_2482-284" data-name="Path 2482" d="M761.474,631H622.987a19.162,19.162,0,0,1-19.14-19.14V498.14A19.162,19.162,0,0,1,622.987,479H761.474a19.162,19.162,0,0,1,19.14,19.14V611.857A19.162,19.162,0,0,1,761.473,631ZM622.987,481.252A16.908,16.908,0,0,0,606.1,498.14V611.857a16.908,16.908,0,0,0,16.889,16.889H761.474a16.908,16.908,0,0,0,16.889-16.889V498.14a16.908,16.908,0,0,0-16.889-16.889Z" transform="translate(364.488 94.578)" fill="#3f3d56"/>
    <rect id="Rectangle_644" data-name="Rectangle 644" width="174.516" height="149.746" rx="16" transform="translate(1172.123 573.578)" fill="#f2f2f2"/>
    <path id="Path_2483-285" data-name="Path 2483" d="M653.867,412.543l-.075,0-15.752-.583a2.035,2.035,0,0,1-1.962-1.816c-1.084-9.673-5.546-58.965,13.145-79.452a26.737,26.737,0,0,1,21.153-8.886.885.885,0,0,0,.812-.423L675,315.389a2.067,2.067,0,0,1,1.973-.936c3.057.369,18.641,2.113,25.194.216a2.051,2.051,0,0,1,2.165.666l5.008,6.12a.877.877,0,0,0,.731.339c2.547-.051,11.477.442,19.292,9.184,8.463,9.466,17.2,30.823,10.745,78.809a2.064,2.064,0,0,1-2.037,1.784H725.668a2.063,2.063,0,0,1-2.031-1.757l-4.053-27.963a.926.926,0,0,0-1.841.113l-.279,13.129a2.056,2.056,0,0,1-1.219,1.832c-4.423,1.944-27.791,11.064-53.618-.358a2.07,2.07,0,0,1-1.219-1.794l-.508-11.929a.926.926,0,0,0-1.845-.064l-3.148,27.942A2.062,2.062,0,0,1,653.867,412.543Z" transform="translate(368.391 73.859)" fill="#033570"/>
    <path id="Path_2484-286" data-name="Path 2484" d="M719.737,594.8h-.012L658,594.414a1.843,1.843,0,0,1-1.817-1.626l-6.209-52.775a1.42,1.42,0,0,0-1.371-1.263c-4.9-.16-16.559-1.277-18.974-8.178-2.152-6.146,3.733-15.211,17.491-26.944a1.843,1.843,0,0,1,2.967.885l7.142,24.64a1.441,1.441,0,0,0,1.366,1.033l58.523.393a1.425,1.425,0,0,0,1.375-1l7.947-25.286a1.84,1.84,0,0,1,2.872-.912c5.422,4.142,22.892,18.36,20.016,27.454-1.506,4.763-8.3,7.417-20.188,7.891a1.425,1.425,0,0,0-1.367,1.263l-6.212,53.19a1.839,1.839,0,0,1-1.829,1.628Z" transform="translate(367.68 97.6)" fill="#033570"/>
    <path id="Path_2486-287" data-name="Path 2486" d="M888.225,511.246h0s-5.664,1.416-14.448,25.208-11.9,54.532-11.9,54.532-4.939,8.364,16.144,8.924c0,0-1.7,5.524,10.2,4.676s10.184-.84,10.184-.84,7.648-4.816,11.048-3.968,5.524,1.136,9.2,4.248,15.444,1.844,15.584-.56a22.23,22.23,0,0,0,0-3.548s17.988,1.136,14.588-11.9S942.6,553.6,942.6,553.6s-9.2-41.78-19.692-42.348S888.225,511.246,888.225,511.246Z" transform="translate(355.096 92.978)" fill="#fff"/>
    <path id="Path_2500-288" data-name="Path 2500" d="M630.325,778.252H201.354a1.126,1.126,0,0,1,0-2.252H630.325a1.126,1.126,0,0,1,0,2.252Z" transform="translate(319.773 126.343)" fill="#cbcbcb"/>
    <g id="Group_162" data-name="Group 162" transform="translate(632.801 459.808)">
      <path id="Path_2631-289" data-name="Path 2631" d="M308.367,503.385a9.071,9.071,0,0,1-3.332,1.263c-4.346.129-7.956-11.636-7.956-11.636s1.233-1.253,3.2-2.984c5.828-5.181,18.05-14.748,23.778-9.4C330.525,486.608,315.9,499.338,308.367,503.385Z" transform="translate(-134.035 -364.496)" fill="#ffb9b9"/>
      <path id="Path_2632-290" data-name="Path 2632" d="M241.843,785.514,225.8,802.828s-14.838.169-11.934-8.016a29.924,29.924,0,0,0,1.233-5.45,133.9,133.9,0,0,0,1.044-17.523c0-3.839-.06-6.534-.06-6.534s23.361-10.233,20.974.428a20.038,20.038,0,0,0-.477,4.058,25.4,25.4,0,0,0,2.665,11.387A25.762,25.762,0,0,0,241.843,785.514Z" transform="translate(-135.561 -364.62)" fill="#ffb9b9"/>
      <path id="Path_2634-291" data-name="Path 2634" d="M279.039,811.7a29.178,29.178,0,0,1-19.532,6.961c-13.227-.189-37.94-.577-43.678-.815-7.677-.338-5.132-6.892-4.883-11.407v-.448c.089-4.525.994-14.331,2.526-15.862s6.772,6.822,6.772,6.822,10.233,2.984,13.048-5.967,8.533-9.816,8.533-9.816c2.6-1.124,2.725,5.629,2.725,5.629l21.66,11.168,12.71,1.989c.408.189.776.378,1.124.567C285.792,803.744,283.246,808.06,279.039,811.7Z" transform="translate(-135.546 -364.731)" fill="#090814"/>
      <path id="Path_2637-292" data-name="Path 2637" d="M189,741.857a33.281,33.281,0,0,0-4.833,4.853c-4.784,5.549-10.7,13.923-13.634,18.08-1.134,1.631-1.82,2.655-1.82,2.655l-6.4-.945s-6.9-10.571-6.812-10.82,5.47-11.606,5.47-11.606l2.078-2.436,6.554-7.658,2.983-3.461S194.782,737.68,189,741.857Z" transform="translate(-135.243 -364.453)" fill="#ffb9b9"/>
      <path id="Path_2639-293" data-name="Path 2639" d="M163.274,778.228s-4.266,9.209-6.574,14.5-1.452,9.12-1.452,9.12a8.948,8.948,0,0,1-.726,1.989,10.045,10.045,0,0,1-8.732,5.529h-.418c-7.777-.2-10.243-22.774-10.243-22.774s1.193-42.972,3.411-45.747a2.129,2.129,0,0,1,1.124-.6,23.87,23.87,0,0,1,6.852-.189c7.031.507,16.071,2.238,16.071,2.238h1.621c-5.718,5.967.418,19.1.418,19.1s2.735.249,4.863,4.087S163.274,778.228,163.274,778.228Z" transform="translate(-135.131 -364.505)" fill="#090814"/>
      <path id="Path_2645-294" data-name="Path 2645" d="M280.367,499.205s3.58.259,5.877-1.273,12.153-5.758,12.411-8.573c0,0,5.877,14.321,9.209,14.838,0,0-10.233,8.055-11,10.611s-20.725,8.831-20.725,8.831Z" transform="translate(-135.908 -363.124)" fill="#033570"/>
      <path id="Path_2648-295" data-name="Path 2648" d="M225.581,669S213.07,685.717,208.5,687.6s-38.676,43.658-38.676,43.658,7.329,13.475,20.8,15.683c0,0,7.329-2.894,10.064-9.378s24.216-24.8,24.216-24.8Z" transform="translate(-135.322 -364.114)" fill="#090814"/>
      <path id="Path_2653-296" data-name="Path 2653" d="M278.494,542.043l-.249,4.714-2.128,39.63s-1.711,8.871-.994,25.916-9.587,44.056-9.587,44.056-4.972,18.249-6.484,26.6-6.305,10.939-12.1,32.251c0,0-5.291,29.337-6.961,32.241s-1.541,18.249-1.541,18.249c-11.079,13.127-27.279,1.193-27.279,1.193l.169-41.1s4.6-37.86,8.016-43.151,3.411-19.78,3.411-19.78l-1.522-33.813s-1.213-3.58-.169-5.629-2.914-7.667-2.914-7.667c-9.557-11.606-10.939-37.7-8.145-42.763s11.059-25.578,11.059-25.578l11.407-6.653,20.616.607Z" transform="translate(-135.535 -363.407)" fill="#090814"/>
      <path id="Path_2656-297" data-name="Path 2656" d="M275.837,480.373v11.258l-7.429-3.2L261,485.236l-16.131-15.862s-12.759-8.284-19.582-15.832c-3.9-4.306-5.858-8.374-2.427-10.522a21.38,21.38,0,0,0,4.465-3.908,73.414,73.414,0,0,0,8.891-13.127c.109-.189.219-.378.318-.567,3.322-6.1,5.519-11.3,5.519-11.3s9.348,2.983,15.355,7.24c.487.338.945.686,1.382,1.044,3.351,2.745,5.022,5.967,1.929,9.109a23.867,23.867,0,0,0-2.2,2.625h0a21.548,21.548,0,0,0-1.372,2.148c-.179.338-.358.666-.517.995a22.933,22.933,0,0,0-2.049,13.654Z" transform="translate(-135.605 -362.709)" fill="#ffb9b9"/>
      <path id="Path_2659-298" data-name="Path 2659" d="M278.619,409.291c0,12.963-8.139,24.071-19.348,26.415a21.106,21.106,0,0,1-4.281.436h-.875c-12.92-.544-23.055-12.8-22.738-27.49s10.966-26.367,23.894-26.192,23.33,12.133,23.339,26.831Z" transform="translate(-135.663 -362.535)" fill="#ffb9b9"/>
      <path id="Path_2662-299" data-name="Path 2662" d="M262.365,476.062s13.535,7.628,10.064,1.193l-17.652-26.1h0l20.039,25.747s12.789,17.573,5.8,29.676c0,0-.994,10.064.169,12.451s-1.986,26.652-1.986,26.652-3.125-3.242-5.681-2.4-20.636,2.4-20.636,2.4Z" transform="translate(-135.778 -362.914)" fill="#e6e6e6"/>
      <path id="Path_2664-300" data-name="Path 2664" d="M268.347,488.567c-.8,8.195-4.167,17.951-4.167,17.951s-2.387,24.226-5.46,31.386-1.7,17.056-3.411,35.3c-.617,6.564-2.735,11.079-5.589,14.132-4.694,4.972-11.4,6.047-16.688,5.748l-1.253-.1c-8.533-.855-16.717-41.958-16.717-41.958s-3.918-34.956-2.387-39.73-1.531-32.062-2.556-38.039c-.656-3.779,1.3-9.945,2.814-13.982.885-2.327,1.611-3.928,1.611-3.928s2.9-9.209,7.677-13.983a6.961,6.961,0,0,1,5.062-2.118,12.451,12.451,0,0,1,6.315,1.989l.219.139s31.048,31.724,33.942,39.054C268.566,482.471,268.675,485.4,268.347,488.567Z" transform="translate(-135.544 -362.848)" fill="#033570"/>
      <path id="Path_2665-301" data-name="Path 2665" d="M233.646,614.38s-7.041,6.265-9.468,5.967S233.646,614.38,233.646,614.38Z" transform="translate(-135.62 -363.813)" opacity="0.1"/>
      <path id="Path_2666-302" data-name="Path 2666" d="M235.525,620.429s-7.419,3.441-9.637,3.978S232.661,619.544,235.525,620.429Z" transform="translate(-135.629 -363.846)" opacity="0.1"/>
      <path id="Path_2670-303" data-name="Path 2670" d="M239.09,609.347s-7.061,30.571,7.1,32.46S255.977,607,255.977,607Z" transform="translate(-135.695 -363.773)" opacity="0.1"/>
      <path id="Path_2671-304" data-name="Path 2671" d="M238.57,608.837s-7.021,30.571,7.111,32.48,9.776-34.807,9.776-34.807Z" transform="translate(-135.692 -363.77)" fill="#ffb9b9"/>
      <path id="Path_2674-305" data-name="Path 2674" d="M250.545,479.711c-.726-18.368-26.434-22.167-32.43-4.793a2.518,2.518,0,0,0-.119.358c-3.928,11.765-2.218,41.56-2.218,41.56s.507,20.009,2.387,26.662,7.16,25.747,7.16,28.84,4.9,14.838,6.961,15.693,3.1,7.5,3.61,8.692,1.989,16.717,1.989,16.717,19.273-1.193,19.611-4.266-4.266-18.08-4.266-18.08-3.391-6.136-3.829-11.079-3.1-7.19-2.576-10.6-1.541-5.112-1.541-7.329-1.531-8.185-1.531-8.185-3.242-2.566-2.725-5.629-4.6-9.209-3.242-11.427,1.7-7.677,1.7-7.677,1.711-24.554,2.9-31.207,8.185-17.394,8.185-17.394S250.565,480.258,250.545,479.711Z" transform="translate(-135.572 -362.983)" opacity="0.1"/>
      <path id="Path_2675-306" data-name="Path 2675" d="M249.738,587.471c-4.694,4.972-11.4,6.047-16.688,5.748-.617-2.327-1.512-5.191-2.814-5.728-2.069-.855-6.961-12.62-6.961-15.683s-5.281-22.177-7.16-28.84-2.387-26.652-2.387-26.652-1.711-29.835,2.218-41.57a1.036,1.036,0,0,1,.119-.348c5.967-17.384,31.7-13.575,32.43,4.793v.845s-6.961,10.74-8.185,17.394-2.884,31.207-2.884,31.207-.348,5.46-1.711,7.677,3.749,8.364,3.242,11.427,2.725,5.629,2.725,5.629,1.532,5.967,1.532,8.195,2.049,3.918,1.541,7.329,2.218,5.629,2.655,10.571a27.568,27.568,0,0,0,2.327,8.006Z" transform="translate(-135.562 -362.98)" opacity="0.1"/>
      <path id="Path_2676-307" data-name="Path 2676" d="M249.515,479.2c-.726-18.368-26.434-22.167-32.43-4.793l-.119.348c-3.928,11.775-2.218,41.57-2.218,41.57s.507,20,2.387,26.652,7.16,25.757,7.16,28.84,4.9,14.838,6.961,15.693,3.1,7.508,3.61,8.7,1.989,16.707,1.989,16.707,19.273-1.193,19.611-4.256-4.256-18.08-4.256-18.08-3.4-6.146-3.839-11.089-3.162-7.16-2.645-10.571-1.541-5.122-1.541-7.339-1.532-8.185-1.532-8.185-3.242-2.556-2.725-5.629-4.6-9.209-3.242-11.427,1.7-7.668,1.7-7.668,1.711-24.564,2.9-31.217,8.185-17.394,8.185-17.394A4.333,4.333,0,0,0,249.515,479.2Z" transform="translate(-135.566 -362.98)" fill="#033570"/>
      <path id="Path_2684-308" data-name="Path 2684" d="M312.178,495.97l.527.358a2.108,2.108,0,0,1-.547-2.984l23.709-34.35a2.1,2.1,0,0,1,2.934-.537l-.527-.368a3.391,3.391,0,0,1,.865,4.714l-22.247,32.291A3.4,3.4,0,0,1,312.178,495.97Z" transform="translate(-134.114 -364.38)" fill="#464353"/>
      <path id="Path_2685-309" data-name="Path 2685" d="M1.73,0h.487V46.005H1.73A1.73,1.73,0,0,1,0,44.275V1.74A1.73,1.73,0,0,1,1.73.01Z" transform="translate(202.987 92.857) rotate(34.56)" fill="#033570"/>
      <path id="Path_2689-310" data-name="Path 2689" d="M5.786,47.9c-5.347-12.259-2.318-23.54,4.2-29.525V18.37C12.549,12.627,15.956,8.2,19.855,7.155A29.925,29.925,0,0,1,25.6,3.8a7.48,7.48,0,0,1,5.869.266L32.5,3.789c2.286-.327.056.192,3.055-.814A28.392,28.392,0,0,1,47.48,0C59.017,0,65.84,9.768,67.649,21.576l-9.642,2.568L54.655,18.8,56.2,24.626l-5.321,1.412c-8.1,10.547,1.593,34.876,13.878,48.412q-4.387-1.213-8.738-2.05L45.481,56.944l6.532,14.069c-3.392-.5-7.718-.02-12.446.94a8.127,8.127,0,0,1-1.608-7.326,28.012,28.012,0,0,0-2.753,8.306c-9.979,2.437-23.591,3.688-30.927,4.613C-1.648,75.61-1.665,53.758,5.786,47.9Z" transform="matrix(0.985, 0.174, -0.174, 0.985, 84.703, 4.744)" fill="#090814"/>
      <path id="Path_2690-311" data-name="Path 2690" d="M1.039,11.24c-3.916,8.77,3.986,12.542,11.226,12.435,6.542-.1,12.1-4.692,12.435-11.226A11.846,11.846,0,0,0,13.474.014C6.941-.32,3.707,5.266,1.039,11.24Z" transform="matrix(0.985, 0.174, -0.174, 0.985, 86.825, 0)" fill="#090814"/>
    </g>
    <path id="Path_2687-312" data-name="Path 2687" d="M636.759,531.944A19.444,19.444,0,1,1,617.314,512.5,19.444,19.444,0,0,1,636.759,531.944Zm-21.7,10.291,14.479-14.423a1.25,1.25,0,0,0,0-1.779l-1.824-1.711a1.25,1.25,0,0,0-1.779,0l-11.766,11.709-5.494-5.494a1.239,1.239,0,0,0-1.768,0l-1.779,1.768a1.272,1.272,0,0,0,0,1.779l8.151,8.152a1.25,1.25,0,0,0,1.779,0Z" transform="translate(529.594 -174.541)" fill="#033570"/>
    <path id="Path_2691-313" data-name="Path 2691" d="M636.759,531.944A19.444,19.444,0,1,1,617.314,512.5,19.444,19.444,0,0,1,636.759,531.944Zm-21.7,10.291,14.479-14.423a1.25,1.25,0,0,0,0-1.779l-1.824-1.711a1.25,1.25,0,0,0-1.779,0l-11.766,11.709-5.494-5.494a1.239,1.239,0,0,0-1.768,0l-1.779,1.768a1.272,1.272,0,0,0,0,1.779l8.151,8.152a1.25,1.25,0,0,0,1.779,0Z" transform="translate(529.594 37.13)" fill="#033570"/>
    <path id="Path_2590-314" data-name="Path 2590" d="M496.727,403.372s-3.552-.424-1.707,3.976,5.249,18.874,3.552,21.854-.849,11.07-8.229,12.638l2.122,8.367s.424,18.45-.424,21.153-1,17.592-.71,19.151.148,11.78-.987,12.214-1.845,5.387,1.845,6.236,19.437,1.282,22.278,2.131,22.989,0,22.989,0,8.515-1.135,10.646-1.845,2.555-2.408,1.845-5.673-3.976-26.965-3.266-29.944.858-32.075.858-32.075S542,439.71,542,434.313s-2.131-19.871,2.269-28.948c0,0-3.552-2.435-4.114-2s-5.922-1.125-5.922-1.125-2.768,24.7-14.345,24.834-16.734-24.834-16.734-24.834S503.258,399.968,496.727,403.372Z" transform="translate(739.807 -19.323)" fill="#033570"/>
    <path id="Path_2692-315" data-name="Path 2692" d="M761.474,443H622.987a19.162,19.162,0,0,1-19.14-19.14V310.14A19.162,19.162,0,0,1,622.987,291H761.474a19.162,19.162,0,0,1,19.14,19.14V423.857A19.162,19.162,0,0,1,761.473,443ZM622.987,293.252A16.908,16.908,0,0,0,606.1,310.14V423.857a16.908,16.908,0,0,0,16.889,16.889H761.474a16.908,16.908,0,0,0,16.889-16.889V310.14a16.908,16.908,0,0,0-16.889-16.889Z" transform="translate(568.277 70.908)" fill="#3f3d56"/>
    <path id="Path_2693-316" data-name="Path 2693" d="M636.759,531.944A19.444,19.444,0,1,1,617.314,512.5,19.444,19.444,0,0,1,636.759,531.944Zm-21.7,10.291,14.479-14.423a1.25,1.25,0,0,0,0-1.779l-1.824-1.711a1.25,1.25,0,0,0-1.779,0l-11.766,11.709-5.494-5.494a1.239,1.239,0,0,0-1.768,0l-1.779,1.768a1.272,1.272,0,0,0,0,1.779l8.151,8.152a1.25,1.25,0,0,0,1.779,0Z" transform="translate(731.576 -174.541)" fill="#033570"/>
    <circle id="Ellipse_431" data-name="Ellipse 431" cx="4.414" cy="4.414" r="4.414" transform="translate(930.477 84.467)" fill="#fff"/>
    <circle id="Ellipse_432" data-name="Ellipse 432" cx="4.414" cy="4.414" r="4.414" transform="translate(947.232 84.467)" fill="#fff"/>
    <circle id="Ellipse_433" data-name="Ellipse 433" cx="4.414" cy="4.414" r="4.414" transform="translate(963.984 84.467)" fill="#fff"/>
  </g>
</svg>